<svg xmlns="http://www.w3.org/2000/svg" viewBox="0 0 594.29506 378.20089"><g id="Layer_11" data-name="Layer 11"><path d="M730.00181,617.20845c3.28109,8.2392,6.03456,16.74339,10.00426,24.63672,3.39457,6.74974,7.93968,13.82735,17.43636,10.277,6.5399-2.445,7.475-11.88719,2.84746-21.92553-.5493.28272-1.45813.44907-1.59124.864-2.2217,6.92507-7.14617,10.84514-13.77345,7.80165-3.02062-1.38728-6.45505-8.70727-5.25071-10.96212a20.22155,20.22155,0,0,1,11.91744-9.1751c9.19768-2.15647,16.02462,2.70334,19.48833,11.41014,3.80672,9.56939.91247,22.55687-6.13152,27.57718-8.53233,6.081-18.61935,5.75443-24.4397-1.7497-7.20215-9.28547-11.42532-20.96516-16.263-31.90747-.77837-1.7605,1.9447-5.06711,3.04923-7.659Z" transform="translate(-192.31586 -289.72303)"/></g><g id="Layer_3" data-name="Layer 3"><path d="M706.67316,645.84356c4.38736,3.082,8.96189,5.87656,13.03854,9.269,4.71849,3.92657,4.42939,5.41227-1.04854,9.44361-9.49024-10.54278-21.74722-15.956-36.08709-17.57727.48964-2.71328.88961-4.9299,1.21114-6.71154,4.97971,0,9.34643.14516,13.69569-.0672a17.9041,17.9041,0,0,0,5.62342-1.45286c2.71727-1.08962,6.26276-2.48877,5.369-5.83239-.52748-1.97337-3.724-3.596-6.0526-4.62374-2.32944-1.0281-5.20206-.78372-7.6006-1.70873-2.76976-1.06822-5.74032-2.341-7.79108-4.36737-2.67022-2.63827-.93716-6.14293.92828-8.31268,1.11089-1.29218,4.71409-1.91031,6.166-1.06389,1.75278,1.02182,2.41422,3.91519,3.91768,6.67779,3.33611,1.11663,8.00491,2.30991,12.36275,4.21455,9.1776,4.01148,7.11151,14.0407,1.07591,18.95013A51.11593,51.11593,0,0,1,706.67316,645.84356Z" transform="translate(-192.31586 -289.72303)"/></g><g id="Layer_4" data-name="Layer 4"><path d="M673.81157,638.20554c-.18237,11.3289-8.61962,20.11287-19.49627,19.35779-10.05205-.69779-17.01076-6.93207-16.38946-18.19413.62135-11.26283,6.8125-19.0305,18.34554-19.1681C666.74122,620.07615,673.978,627.86552,673.81157,638.20554Zm-16.63163-10.06093c-7.19746-.0341-11.85635,4.24391-11.878,10.90694-.02012,6.19088,4.23277,11.00677,9.64462,10.92155A11.34708,11.34708,0,0,0,666.188,638.87126C666.23467,632.67727,662.44915,628.16958,657.17994,628.14461Z" transform="translate(-192.31586 -289.72303)"/></g><g id="Layer_5" data-name="Layer 5"><path d="M604.05405,620.95648c4.62493,1.5656,9.32968,2.72972,13.65862,4.71356,8.80683,4.03594,7.332,12.98738,1.59931,18.42349a36.39053,36.39053,0,0,1-5.3956,3.66484c4.25151,2.96807,8.85035,5.78587,12.986,9.16942,4.72742,3.86764,4.47688,5.312-.88993,9.54368-9.5531-10.40885-21.681-16.05982-36.16022-17.52463.4514-2.68734.81858-4.87358,1.09915-6.54386,6.03473-.32106,11.50224-.35823,16.89264-1.02166a14.1481,14.1481,0,0,0,6.306-2.97634c2.88742-2.17679,2.52294-5.62064-.841-6.91384-3.5651-1.3705-7.49652-1.766-11.117-3.022a25.92313,25.92313,0,0,1-7.5935-3.95955c-2.73708-2.17787-1.57251-5.3078-.05684-7.56772a7.43285,7.43285,0,0,1,4.92307-2.8347C603.13226,613.77616,604.54227,616.34351,604.05405,620.95648Z" transform="translate(-192.31586 -289.72303)"/></g><g id="Layer_6" data-name="Layer 6"><path d="M694.22963,528.09985a29.69354,29.69354,0,0,1-22.29647-11.83894c-.72344-.93757-.96254-3.2356-.32863-4.0663A100.49371,100.49371,0,0,1,681.71224,500.47c1.58742-1.52148,4.70291-2.93981,6.574-2.42116,8.89069,2.46446,16.52346,6.95045,20.11563,16.16669a9.0731,9.0731,0,0,1-5.76182,12.0167C699.89349,527.04678,697.03672,527.48945,694.22963,528.09985Z" transform="translate(-192.31586 -289.72303)"/><path d="M271.16556,445.24131c1.13681.8275,2.3587,1.335,3.00906,2.24909,7.00851,9.85056,13.89417,19.78838,20.8787,29.65615,8.1071,11.45366,16.59741,22.62344,27.48075,31.62581,6.64924,5.50011,13.80753,10.30173,22.13575,13.09019a74.59716,74.59716,0,0,0,40.75832,1.94409,77.68443,77.68443,0,0,0,31.43555-15.44245,91.16675,91.16675,0,0,0,22.02353-25.89512c2.56388-4.44391,3.35552-9.89166,5.09351-14.83392,3.93579-11.19175,5.49974-22.72211,3.62353-34.40309-1.8921-11.77979-4.05414-23.59912-10.04283-34.22324a33.05364,33.05364,0,0,0-2.27843-3.17226c-7.53418,1.27313-10.02258,7.37838-12.85091,12.69922-5.35937,10.08238-9.534,20.84109-15.423,30.58-4.49118,7.42719-9.8896,14.9849-16.65035,20.19282-8.84406,6.81272-18.87706,13.00753-31.11885,11.80665-12.57267-1.23331-24.49655-4.57769-33.964-13.42671-5.16473-4.82732-10.64462-9.85418-14.08374-15.87519-6.52695-11.427-9.04523-24.03941-6.25333-37.313,1.402-6.66582,2.35447-13.43314,3.94135-20.05121,1.71335-7.14532,3.90233-14.178,5.93954-21.2437a72.65541,72.65541,0,0,1,3.08087-9.675c3.2008-7.13754,6.69972-14.14244,10.12877-21.17623,1.55428-3.1882,3.40669-6.242,4.79269-9.49776,1.059-2.48754.0991-4.61391-2.77744-4.71265-9.46728-.325-18.96478.22811-26.506,6.75116a187.90745,187.90745,0,0,0-17.04314,17.1207c-6.01012,6.734-11.76557,13.73434-17.14588,20.97954-4.93014,6.639-9.36064,13.66661-13.73809,20.69312-4.12677,6.62415-8.202,13.31585-11.72451,20.26918-2.64161,5.21441-4.37067,10.89091-6.506,16.36169a31.6934,31.6934,0,0,1-1.22839,3.10323c-4.94777,9.5458-6.59745,20.11608-9.66413,30.25689-2.97218,9.82835-3.06455,20.01337-5.06943,29.86848-4.19252,20.60871-3.22484,41.13386-.5385,61.62551,1.43879,10.97521,3.78425,21.91846,9.07957,31.99506A46.86808,46.86808,0,0,0,253.576,599.27387a135.535,135.535,0,0,0,36.471,9.64239,481.77947,481.77947,0,0,0,60.96875,3.68256c22.801-.004,45.60156-.71285,68.40307-.76315,12.32943-.02721,24.66005.69559,36.991,1.04924,8.59909.24656,17.276-.20128,25.78149.81032a232.13231,232.13231,0,0,1,37.10049,7.1625,112.65773,112.65773,0,0,1,24.62786,10.64245c5.509,3.1382,10.27036,7.6632,15.124,11.8491a53.51268,53.51268,0,0,1,8.431,8.81435,92.09234,92.09234,0,0,1,6.87869,12.00912c.3655.70657-.34921,1.97179-.73028,3.75118-3.11575-3.62976-5.57215-6.83424-8.38844-9.68324-3.3239-3.36256-6.50292-7.2566-10.54286-9.45208-13.25987-7.20621-27.51875-12.16312-42.52624-13.7348-14.96168-1.56693-30.05529-2.32216-45.103-2.52-24.96281-.32811-49.93635.26378-74.90327.11478-22.87007-.13643-45.75428-.32392-68.60111-1.25429a182.3598,182.3598,0,0,1-66.87773-15.74069c-6.49455-2.87938-12.4434-6.98119-18.91544-9.92189a27.43413,27.43413,0,0,1-12.08772-10.93191c-2.53228-3.97278-6.281-7.15954-8.91621-11.08055a113.32225,113.32225,0,0,1-7.30416-13.22991,149.95257,149.95257,0,0,1-7.60886-16.86665,205.58624,205.58624,0,0,1-5.30038-19.8714c-5.12953-21.56915-4.84018-43.48743-3.069-65.323,1.01843-12.55552,3.52026-25.03437,6.02419-37.41228,2.06333-10.1998,4.83078-20.28511,7.83657-30.2553a100.7533,100.7533,0,0,1,6.734-15.72436c5.11524-10.22575,10.3082-20.42375,15.852-30.42094,5.67158-10.22762,12.85688-19.45793,20.49071-28.27979,8.18789-9.4622,17.08387-18.41211,27.84018-24.791,4.49778-2.66735,10.70208-2.82173,16.20378-3.338,6.4107-.60161,12.92162-.07089,19.3529-.53365,8.93341-.64282,16.58778,2.43571,23.83386,7.144,4.07763,2.64952,5.71864,1.81653,8.89782-1.40912a59.76342,59.76342,0,0,1,12.30629-9.36841c10.78166-6.32138,20.34748-1.79757,29.43514,4.27353,4.36985,2.91935,6.82686,2.31485,11.88743.48252a58.94364,58.94364,0,0,1,17.76527-3.07628c18.4725-.65363,36.96379-.94178,55.44885-.994,7.42747-.021,15.133-.09191,22.19752,1.79015,5.40694,1.44046,10.23594,5.61254,14.87512,9.15473,2.683,2.04855,4.52167,2.01346,6.66063-.13012,7.98054-7.99773,17.727-11.73246,28.89816-11.95791q29.08177-.58684,58.1658-1.06328c14.58479-.21577,29.17188-.277,43.758-.40076,11.319-.096,22.6612-.66164,33.95-.12011a186.6368,186.6368,0,0,1,26.62468,3.55765c4.85147.94551,9.5,3.1957,14.06671,5.244,2.95,1.32311,5.05636,1.38609,7.49264-1.11925,7.60565-7.8213,17.574-9.23909,27.84451-9.90386,9.92493-.6424,16.749,4.59423,22.94335,11.33177,1.473,1.60225,3.35628,2.879,4.60573,4.624,2.20024,3.07284,1.16528,4.542-2.65608,4.97322-7.0679.79753-14.34661,1.08206-21.06469,3.13048-4.2101,1.28371-7.772,5.17229-11.14344,8.39546-.863.82506-.57028,4.02454.33987,5.33692,4.03319,5.81532,4.60036,12.657,5.83985,19.16971,2.43265,12.78173,4.248,25.7036,3.52756,38.79436-.66348,12.05382-1.84036,24.08886-2.16852,36.14909-.34574,12.7076-.23211,25.44451.192,38.15157.44251,13.25609,1.29046,26.50824,2.35069,39.73086.72743,9.07194,2.2984,18.07381,3.14859,27.13922.50681,5.40417-1.77872,7.0615-6.67161,4.78139-8.7265-4.0666-16.33165-9.57887-19.7438-19.136-3.01243-8.43757-9.3883-13.79258-16.49251-18.419-13.2661-8.63928-28.15159-10.98848-43.66711-10.93428-17.06346.05961-34.14224.27361-51.18635-.348-10.56656-.3854-20.6683-3.14783-29.26351-10.11433-5.81906-4.71642-10.88824-10.00259-12.56845-17.33564-.81143-3.54116.343-7.5778.82828-11.36178,1.13041-8.815,6.75021-15.66147,10.25306-23.44173,3.28059-7.28655,8.20611-13.35792,12.33833-20.00025a64.45421,64.45421,0,0,1,6.79356-8.67909c10.62534-11.9034,21.00821-24.05028,32.13336-35.47169,8.41979-8.644,17.2686-17.09182,26.98058-24.18394,7.37145-5.38293,16.35494-8.594,24.72207-12.55853,2.67646-1.26816,5.74334-1.69252,8.49425-2.83381,1.08215-.449,1.78873-1.803,2.66635-2.74482-1.06249-.68086-2.11236-1.92733-3.18944-1.95123q-10.92052-.24251-21.85023-.02952c-18.91853.38306-37.83487.87327-56.752,1.32275-21.17306.5031-42.34428,1.13292-63.52014,1.45149-8.4608.12728-15.8204,2.30445-22.2142,8.11133-5.88842,5.34786-8.08835,12.23286-5.308,19.6471a127.11857,127.11857,0,0,1,8.2363,46.03545c-.06945,8.63954.68136,17.375-.349,25.89664-1.56562,12.94907-4.46233,25.73272-6.58418,38.6211-1.01581,6.16994-1.55908,12.418-2.30121,18.63255-.80514,6.74241-2.05607,13.47172-2.27842,20.23414-.32526,9.89429-.01088,19.81562.23568,29.7203.13028,5.23355-2.27332,7.02684-7.34158,5.70515-8.43409-2.19942-14.65021-7.29087-18.00639-14.98358-1.77-4.05708-1.86329-9.11884-1.69885-13.69051.36529-10.15791,1.31476-20.29727,2.1291-30.43593.818-10.18521,1.54391-20.38555,2.72278-30.53137.82746-7.12208,2.6191-14.131,3.4767-21.25112a166.59482,166.59482,0,0,0,1.2066-19.51745c.02712-12.48861.244-25.02521-.75311-37.4508-.67365-8.39435-3.27815-16.63541-5.0562-24.937-.17114-.799-.85147-1.53115-.88365-2.31132-.45154-10.95371-10.09289-14.9936-18.31027-15.74128-11.55842-1.05167-23.28066-.34256-34.93266-.31312-7.60578.01923-15.219-.0124-22.81466.31083-7.46018.31749-14.37881,2.31159-18.64371,9.10589a8.19062,8.19062,0,0,0-.73475,5.587c1.13472,5.14577,3.501,9.88118-.34548,15.259-3.16487,4.42477-4.79123,9.9188-7.5569,14.67289-1.36527,2.3469-3.71371,4.14539-5.73373,6.06984-.44149.42058-1.74589.67486-2.01844.39283a5.67329,5.67329,0,0,1-1.71512-2.91006c-.49513-4.34289-.39412-8.7747-1.14411-13.06335-1.69775-9.708-3.64048-19.37881-5.74742-29.00705-.95973-4.3857-3.95749-5.41051-7.85367-2.87113-7.26673,4.73622-12.63213,11.28222-17.17471,18.57722-2.36346,3.79548-4.99607,7.43071-7.22512,11.30067-2.78722,4.839-5.38646,9.79414-7.88027,14.79223-2.93451,5.8814-6.12676,11.69548-8.37191,17.84368-2.67459,7.3241-4.52448,14.95478-6.60892,22.48659-1.08787,3.93086-1.74236,7.98447-2.88936,11.8956-2.87083,9.78926-2.03524,19.69917-.98913,29.57866a5.261,5.261,0,0,0,3.44622,3.49983c8.86283,1.61314,17.10868-.2867,25.2086-4.30071,10.95336-5.42809,17.57351-14.79072,23.43879-24.72811,4.956-8.3968,9.02148-17.32465,13.36224-26.0764,2.03233-4.09752,3.7575-8.34638,5.66985-12.50458,2.74345-5.96545,9.85956-9.38941,17.15058-8.40457,9.18894,1.24125,16.43164,6.47467,23.36556,11.92227a79.92065,79.92065,0,0,1,11.98775,12.33231,71.39011,71.39011,0,0,1,7.4666,11.63825c9.28272,17.31608,13.2017,35.96275,12.8276,55.48924a70.17527,70.17527,0,0,1-2.20487,16.83c-1.54786,5.72679-4.17736,11.19967-6.68514,16.62125-6.66711,14.41385-17.65494,25.36575-30.56629,33.8265a83.44574,83.44574,0,0,1-53.25272,13.5359c-16.68077-1.278-31.34314-7.73141-45.56607-15.96138-12.83439-7.42653-23.43031-17.4849-33.72846-27.83983-10.70906-10.76811-19.89348-22.86389-26.33152-36.69113-2.69966-5.79813-3.9858-12.25712-5.84342-18.437C270.314,446.54878,270.82587,445.98091,271.16556,445.24131Zm460.41613,44.71345c.681-2.72515,1.39019-4.22828,1.37068-5.72189-.075-5.74429-.575-11.48571-.57095-17.22795.01629-23.07639-1.45836-46.12123.7167-69.24018,1.6775-17.83056,1.55136-35.84376,1.86349-53.78208.098-5.62867-.80213-11.30592-1.65656-16.89815a5.54029,5.54029,0,0,0-3.16432-3.635c-.78492-.27728-2.6857,1.4425-3.49871,2.65582-1.51817,2.26563-2.27337,5.08234-3.94347,7.19846a181.78336,181.78336,0,0,1-13.9303,16.41832c-7.48058,7.45614-15.52415,14.34677-23.31053,21.4972-5.3713,4.93258-10.84422,9.76462-16.02825,14.88781-4.491,4.43845-8.7262,9.14657-12.91909,13.87328-6.1434,6.9256-12.37705,13.79147-18.14852,21.02094-5.93765,7.43771-11.49371,15.19221-16.96275,22.98619a78.52494,78.52494,0,0,0-6.70235,11.65286c-1.91906,4.07982-1.11218,5.16074,3.4455,5.19109,6.397.04264,12.80127-.36794,19.192-.1951,11.522.3116,23.09931.33434,34.53231,1.58562,8.25116.903,16.768,2.52209,24.33451,5.76323,10.11613,4.33321,19.47987,10.45488,29.04212,16.02234C727.29611,485.20288,728.81688,487.31187,731.58169,489.95476Z" transform="translate(-192.31586 -289.72303)"/></g></svg>